<?xml version="1.0" encoding="UTF-8" standalone="no"?>
<svg
   id="Camada_2"
   data-name="Camada 2"
   viewBox="0 0 164.44 168.57001"
   version="1.1"
   sodipodi:docname="level_icons_tinkerer.svg"
   inkscape:version="1.4.2 (f4327f4, 2025-05-13)"
   width="164.44"
   height="168.57001"
   inkscape:export-filename="..\..\docs\_static\images\levels\tinkerer.png"
   inkscape:export-xdpi="54.242756"
   inkscape:export-ydpi="54.242756"
   xmlns:inkscape="http://www.inkscape.org/namespaces/inkscape"
   xmlns:sodipodi="http://sodipodi.sourceforge.net/DTD/sodipodi-0.dtd"
   xmlns="http://www.w3.org/2000/svg"
   xmlns:svg="http://www.w3.org/2000/svg">
  <sodipodi:namedview
     id="namedview117"
     pagecolor="#505050"
     bordercolor="#eeeeee"
     borderopacity="1"
     inkscape:showpageshadow="0"
     inkscape:pageopacity="0"
     inkscape:pagecheckerboard="0"
     inkscape:deskcolor="#505050"
     showgrid="false"
     inkscape:zoom="1.264872"
     inkscape:cx="84.198243"
     inkscape:cy="151.39872"
     inkscape:window-width="1920"
     inkscape:window-height="991"
     inkscape:window-x="-9"
     inkscape:window-y="-9"
     inkscape:window-maximized="1"
     inkscape:current-layer="Camada_2" />
  <defs
     id="defs4">
    <style
       id="style2">.cls-1,.cls-5,.cls-6,.cls-7{fill:#fff;}.cls-1,.cls-3,.cls-4,.cls-5,.cls-6,.cls-7,.cls-8{stroke:#29abe2;stroke-miterlimit:10;}.cls-1,.cls-3{stroke-width:5px;}.cls-2,.cls-3,.cls-4{fill:#29abe2;}.cls-4{stroke-width:4.03px;}.cls-5,.cls-8{stroke-width:2.09px;}.cls-6{stroke-width:1.85px;}.cls-7{stroke-width:2.34px;}.cls-8{fill:none;}</style>
    <rect
       x="243.5029"
       y="30.042564"
       width="752.64532"
       height="313.07516"
       id="rect6323" />
  </defs>
  <path
     class="cls-1"
     d="M 156.15,117.28 H 8.29 a 5.8,5.8 0 0 1 -5.79,-5.8 c 0,0 3.21,-83 80.19,-83 76.98,0 79.25,83 79.25,83 a 5.8,5.8 0 0 1 -5.79,5.8 z"
     id="path6-0"
     style="fill:#ffffff;stroke:#00a3b9;stroke-width:5px;stroke-miterlimit:10;stroke-opacity:1" />
  <path
     class="cls-2"
     d="M 123.28,117.28 H 44.8 c -1.7,0 -3.08,-2.6 -3.08,-5.8 0,0 1.71,-83 42.57,-83 40.86,0 42.06,83 42.06,83 0,3.2 -1.38,5.8 -3.07,5.8 z"
     id="path8-0"
     style="fill:#00a3b9;fill-opacity:1" />
  <path
     class="cls-1"
     d="m 26.68,117.28 h 114.77 v 7.37 a 41.42,41.42 0 0 1 -41.42,41.42 H 68.1 A 41.42,41.42 0 0 1 26.68,124.65 Z"
     id="path10-9"
     style="fill:#ffffff;stroke:#00a3b9;stroke-width:5px;stroke-miterlimit:10;stroke-opacity:1" />
  <path
     class="cls-3"
     d="m 84.49,2.5 v 0 a 3.15,3.15 0 0 1 3.15,3.15 v 23 h -6.3 v -23 A 3.15,3.15 0 0 1 84.49,2.5 Z"
     id="path12-1"
     style="fill:#00a3b9;fill-opacity:1;stroke:#00a3b9;stroke-width:5px;stroke-miterlimit:10;stroke-opacity:1" />
  <path
     class="cls-4"
     d="m 21.39,13.04 c 0,25.15 122,-25.91 122,-2.19 -0.03,26.13 -122,-24.44 -122,2.19 z"
     id="path14-6"
     style="fill:#00a3b9;fill-opacity:1;stroke:#00a3b9;stroke-width:4.03px;stroke-miterlimit:10;stroke-opacity:1" />
</svg>
