<?xml version="1.0" encoding="UTF-8" standalone="no"?>
<svg
   id="Camada_2"
   data-name="Camada 2"
   viewBox="0 0 191.96458 165.36001"
   version="1.1"
   sodipodi:docname="level_icons_conductor.svg"
   inkscape:version="1.4.2 (f4327f4, 2025-05-13)"
   width="191.96458"
   height="165.36"
   inkscape:export-filename="..\..\docs\_static\images\levels\conductor.png"
   inkscape:export-xdpi="54.213196"
   inkscape:export-ydpi="54.213196"
   xmlns:inkscape="http://www.inkscape.org/namespaces/inkscape"
   xmlns:sodipodi="http://sodipodi.sourceforge.net/DTD/sodipodi-0.dtd"
   xmlns="http://www.w3.org/2000/svg"
   xmlns:svg="http://www.w3.org/2000/svg">
  <sodipodi:namedview
     id="namedview117"
     pagecolor="#505050"
     bordercolor="#eeeeee"
     borderopacity="1"
     inkscape:showpageshadow="0"
     inkscape:pageopacity="0"
     inkscape:pagecheckerboard="0"
     inkscape:deskcolor="#505050"
     showgrid="false"
     inkscape:zoom="1.264872"
     inkscape:cx="296.07739"
     inkscape:cy="149.02694"
     inkscape:window-width="1920"
     inkscape:window-height="991"
     inkscape:window-x="-9"
     inkscape:window-y="-9"
     inkscape:window-maximized="1"
     inkscape:current-layer="Camada_2" />
  <defs
     id="defs4">
    <style
       id="style2">.cls-1,.cls-5,.cls-6,.cls-7{fill:#fff;}.cls-1,.cls-3,.cls-4,.cls-5,.cls-6,.cls-7,.cls-8{stroke:#29abe2;stroke-miterlimit:10;}.cls-1,.cls-3{stroke-width:5px;}.cls-2,.cls-3,.cls-4{fill:#29abe2;}.cls-4{stroke-width:4.03px;}.cls-5,.cls-8{stroke-width:2.09px;}.cls-6{stroke-width:1.85px;}.cls-7{stroke-width:2.34px;}.cls-8{fill:none;}</style>
    <rect
       x="243.5029"
       y="30.042564"
       width="752.64532"
       height="313.07516"
       id="rect6323" />
  </defs>
  <rect
     class="cls-3"
     x="16.013739"
     y="66.029999"
     width="159.44"
     height="40.41"
     rx="5.79"
     id="rect16"
     style="fill:#00a3b9;fill-opacity:1;stroke:#00a3b9;stroke-width:5px;stroke-miterlimit:10;stroke-opacity:1" />
  <path
     class="cls-3"
     d="M 29.203739,106.44 H 161.98374 v 15 a 41.42,41.42 0 0 1 -41.42,41.42 H 70.623739 a 41.42,41.42 0 0 1 -41.42,-41.42 z"
     id="path18"
     style="fill:#00a3b9;fill-opacity:1;stroke:#00a3b9;stroke-width:5px;stroke-miterlimit:10;stroke-opacity:1" />
  <path
     class="cls-3"
     d="m 189.23374,15.11 c 0,0 -38.48,-12.61 -98.510001,-12.61 -60.03,0 -88.0000005,12.61 -88.0000005,12.61 0,0 -1.4,12.25 2.8,18.21 4.2,5.96 16.3000005,16.86 16.3000005,23.17 v 9.54 c -0.72,-0.73 149.050001,-0.73 148.330001,0 v -9.54 c 0,-6.31 12.1,-17.22 16.3,-23.17 4.2,-5.95 2.78,-18.21 2.78,-18.21 z"
     id="path20"
     style="fill:#00a3b9;fill-opacity:1;stroke:#00a3b9;stroke-width:5px;stroke-miterlimit:10;stroke-opacity:1" />
  <rect
     class="cls-5"
     x="25.433741"
     y="95.98999"
     width="140.69"
     height="8.2299995"
     id="rect22"
     style="fill:#ffffff;stroke:#00a3b9;stroke-width:2.09px;stroke-miterlimit:10;stroke-opacity:1" />
  <ellipse
     class="cls-6"
     cx="24.23374"
     cy="99.980011"
     rx="4.3000002"
     ry="6.1900001"
     id="ellipse24"
     style="fill:#ffffff;stroke:#00a3b9;stroke-width:1.85px;stroke-miterlimit:10;stroke-opacity:1" />
  <ellipse
     class="cls-6"
     cx="167.22374"
     cy="99.980011"
     rx="4.3000002"
     ry="6.1900001"
     id="ellipse26"
     style="fill:#ffffff;stroke:#00a3b9;stroke-width:1.85px;stroke-miterlimit:10;stroke-opacity:1" />
  <path
     class="cls-1"
     d="m 132.77374,160.93 a 29.32,29.32 0 0 1 -8.42,1.78 h -8.27 v -56.3 h 16.69 z"
     id="path28"
     style="fill:#ffffff;stroke:#00a3b9;stroke-width:5px;stroke-miterlimit:10;stroke-opacity:1" />
  <path
     class="cls-7"
     d="m 126.23374,73.61 h -12.51 a 22.48,22.48 0 1 0 -38.250001,0 h -12.39 a 5.79,5.79 0 0 0 -5.79,5.79 v 7.37 a 5.79,5.79 0 0 0 5.79,5.79 h 63.150001 a 5.79,5.79 0 0 0 5.79,-5.79 v -7.36 a 5.79,5.79 0 0 0 -5.79,-5.8 z"
     id="path30"
     style="fill:#ffffff;stroke:#00a3b9;stroke-width:2.34px;stroke-miterlimit:10;stroke-opacity:1" />
</svg>
